<svg width="19" height="49" viewBox="0 0 19 49" fill="none" xmlns="http://www.w3.org/2000/svg">
<path d="M11.2363 30.0709H7.97252C7.92421 30.0709 7.88281 30.0088 7.88281 29.9329C7.88281 29.857 7.92421 29.7949 7.97252 29.7949H11.2363C11.2846 29.7949 11.326 29.857 11.326 29.9329C11.326 30.0088 11.2846 30.0709 11.2363 30.0709Z" fill="#00857C"/>
<path d="M10.4522 26.2278H9.12045C9.12045 26.2278 9.08594 26.1657 9.08594 26.0829C9.08594 26.0001 9.09974 25.938 9.12045 25.938H10.4522C10.4522 25.938 10.4867 26.0001 10.4867 26.0829C10.4867 26.1657 10.4729 26.2278 10.4522 26.2278Z" fill="#00857C"/>
<path d="M6.95416 24.7092L7.74078 23.5568C7.76838 23.5154 7.74078 23.4464 7.67868 23.405C7.61658 23.3636 7.54758 23.3567 7.51998 23.3912L6.73336 24.5436C6.70575 24.585 6.73336 24.654 6.79546 24.6954C6.85756 24.7368 6.92656 24.7437 6.95416 24.7092Z" fill="#00857C"/>
<path d="M9.03143 27.9321L8.38281 27.3249C8.38281 27.3249 8.38281 27.2421 8.43111 27.1869C8.47941 27.1317 8.53461 27.0972 8.56221 27.1179L9.21083 27.7251C9.21083 27.7251 9.21083 27.8079 9.16253 27.8631C9.11423 27.9183 9.05903 27.9528 9.03143 27.9321Z" fill="#00857C"/>
<path d="M14.1749 24.7854H5.23226C5.12186 24.7854 5.03906 24.7233 5.03906 24.6405C5.03906 24.5577 5.12876 24.4956 5.23226 24.4956H14.1818C14.2922 24.4956 14.375 24.5577 14.375 24.6405C14.375 24.7233 14.2853 24.7854 14.1818 24.7854H14.1749Z" fill="#00857C"/>
<path d="M13.1567 28.0144H9.11315C9.06485 28.0144 9.02344 27.9523 9.02344 27.8695C9.02344 27.7867 9.06485 27.7246 9.11315 27.7246H13.1567C13.205 27.7246 13.2464 27.7867 13.2464 27.8695C13.2464 27.9523 13.205 28.0144 13.1567 28.0144Z" fill="#00857C"/>
<path d="M14.5233 21.7698H6.4501C6.3397 21.7698 6.25 21.7077 6.25 21.6249C6.25 21.5421 6.3397 21.48 6.4501 21.48H14.5233C14.6337 21.48 14.7234 21.5421 14.7234 21.6249C14.7234 21.7077 14.6337 21.7698 14.5233 21.7698Z" fill="#00857C"/>
<path d="M11.8866 19.7555H8.78837C8.65727 19.7555 8.54688 19.6796 8.54688 19.5899C8.54688 19.5002 8.65727 19.4243 8.78837 19.4243H11.8866C12.0177 19.4243 12.1281 19.5002 12.1281 19.5899C12.1281 19.6796 12.0177 19.7555 11.8866 19.7555Z" fill="#00857C"/>
<path d="M8.30151 20.0451C8.57589 20.0451 8.79832 19.8412 8.79832 19.5897C8.79832 19.3382 8.57589 19.1343 8.30151 19.1343C8.02712 19.1343 7.80469 19.3382 7.80469 19.5897C7.80469 19.8412 8.02712 20.0451 8.30151 20.0451Z" fill="#00857C"/>
<path d="M5.81712 22.0046C6.09151 22.0046 6.31394 21.8007 6.31394 21.5492C6.31394 21.2976 6.09151 21.0938 5.81712 21.0938C5.54274 21.0938 5.32031 21.2976 5.32031 21.5492C5.32031 21.8007 5.54274 22.0046 5.81712 22.0046Z" fill="#00857C"/>
<path d="M14.4812 22.0803C14.7556 22.0803 14.978 21.8764 14.978 21.6248C14.978 21.3733 14.7556 21.1694 14.4812 21.1694C14.2068 21.1694 13.9844 21.3733 13.9844 21.6248C13.9844 21.8764 14.2068 22.0803 14.4812 22.0803Z" fill="#00857C"/>
<path d="M12.1296 20.0451C12.404 20.0451 12.6264 19.8412 12.6264 19.5897C12.6264 19.3382 12.404 19.1343 12.1296 19.1343C11.8552 19.1343 11.6328 19.3382 11.6328 19.5897C11.6328 19.8412 11.8552 20.0451 12.1296 20.0451Z" fill="#00857C"/>
<path d="M14.3796 24.9582C14.654 24.9582 14.8764 24.7543 14.8764 24.5028C14.8764 24.2513 14.654 24.0474 14.3796 24.0474C14.1052 24.0474 13.8828 24.2513 13.8828 24.5028C13.8828 24.7543 14.1052 24.9582 14.3796 24.9582Z" fill="#00857C"/>
<path d="M13.743 28.3317C14.0173 28.3317 14.2398 28.1278 14.2398 27.8763C14.2398 27.6248 14.0173 27.4209 13.743 27.4209C13.4686 27.4209 13.2461 27.6248 13.2461 27.8763C13.2461 28.1278 13.4686 28.3317 13.743 28.3317Z" fill="#00857C"/>
<path d="M11.5347 30.368C11.7977 30.368 12.0108 30.1733 12.0108 29.9332C12.0108 29.6932 11.7977 29.4985 11.5347 29.4985C11.2718 29.4985 11.0586 29.6932 11.0586 29.9332C11.0586 30.1733 11.2718 30.368 11.5347 30.368Z" fill="#00857C"/>
<path d="M4.73119 24.9582C5.00557 24.9582 5.228 24.7543 5.228 24.5028C5.228 24.2513 5.00557 24.0474 4.73119 24.0474C4.45681 24.0474 4.23438 24.2513 4.23438 24.5028C4.23438 24.7543 4.45681 24.9582 4.73119 24.9582Z" fill="#00857C"/>
<path d="M5.95775 27.5861C6.23214 27.5861 6.45457 27.3822 6.45457 27.1307C6.45457 26.8792 6.23214 26.6753 5.95775 26.6753C5.68337 26.6753 5.46094 26.8792 5.46094 27.1307C5.46094 27.3822 5.68337 27.5861 5.95775 27.5861Z" fill="#00857C"/>
<path d="M7.6558 30.368C7.91875 30.368 8.13192 30.1733 8.13192 29.9332C8.13192 29.6932 7.91875 29.4985 7.6558 29.4985C7.39285 29.4985 7.17969 29.6932 7.17969 29.9332C7.17969 30.1733 7.39285 30.368 7.6558 30.368Z" fill="#00857C"/>
<path d="M7.85841 23.5364C8.09088 23.5364 8.27932 23.3665 8.27932 23.1569C8.27932 22.9473 8.09088 22.7773 7.85841 22.7773C7.62595 22.7773 7.4375 22.9473 7.4375 23.1569C7.4375 23.3665 7.62595 23.5364 7.85841 23.5364Z" fill="#00857C"/>
<path d="M8.51276 27.3312L9.29938 26.1789C9.32698 26.1375 9.29938 26.0685 9.23728 26.0271C9.17518 25.9857 9.10617 25.9788 9.07857 26.0133L8.29195 27.1656C8.26435 27.207 8.29195 27.276 8.35405 27.3174C8.41615 27.3588 8.48516 27.3657 8.51276 27.3312Z" fill="#00857C"/>
<path d="M10.7686 26.4617C11.001 26.4617 11.1895 26.2917 11.1895 26.0821C11.1895 25.8726 11.001 25.7026 10.7686 25.7026C10.5361 25.7026 10.3477 25.8726 10.3477 26.0821C10.3477 26.2917 10.5361 26.4617 10.7686 26.4617Z" fill="#00857C"/>
<path d="M8.5117 27.3931H6.62795C6.56585 27.3931 6.50374 27.3379 6.49684 27.262C6.48994 27.1861 6.53134 27.1309 6.59345 27.1309H8.4772C8.5393 27.1309 8.6014 27.1861 8.6152 27.262C8.629 27.3379 8.5807 27.3931 8.5186 27.3931H8.5117Z" fill="#00857C"/>
<path d="M10.9908 21.5769L10.3146 22.7844C10.2939 22.8258 10.3284 22.8948 10.3905 22.9293C10.4526 22.9638 10.5285 22.9707 10.5492 22.9293L11.2254 21.7218C11.2461 21.6804 11.2116 21.6114 11.1495 21.5769C11.0874 21.5424 11.0115 21.5355 10.9908 21.5769Z" fill="#00857C"/>
<path d="M10.3037 23.6677C10.5361 23.6677 10.7246 23.4978 10.7246 23.2882C10.7246 23.0786 10.5361 22.9087 10.3037 22.9087C10.0712 22.9087 9.88281 23.0786 9.88281 23.2882C9.88281 23.4978 10.0712 23.6677 10.3037 23.6677Z" fill="#00857C"/>
<path d="M15.9997 17.6987C16.5793 18.2507 17.09 18.9063 17.4971 19.617C17.9042 20.3346 18.2285 21.1005 18.47 21.9009C18.7046 22.7014 18.8633 23.5225 18.9461 24.3574C18.9599 24.5644 18.9875 24.7714 18.9944 24.9853C19.0013 25.2061 19.0013 25.4269 18.9944 25.6478C18.9806 26.0894 18.9323 26.5241 18.8495 26.9519C18.7667 27.3797 18.6563 27.8075 18.5183 28.2146C18.3803 28.6286 18.2147 29.0288 18.0353 29.4153C17.6765 30.195 17.2349 30.9264 16.7518 31.6233C16.2688 32.3202 15.7306 32.962 15.1648 33.5761C14.599 34.1902 13.9987 34.7629 13.3777 35.308C12.7566 35.8531 12.108 36.3637 11.4387 36.8537C11.1006 37.0952 10.7625 37.3298 10.4106 37.5506L10.1415 37.7231L10.0104 37.8059L9.92066 37.868L9.45835 38.1854C8.21631 39.0548 7.02258 40.0415 5.91855 41.0973C4.81452 42.1599 3.80019 43.3122 2.97217 44.5957C2.14414 45.8791 1.50933 47.3074 1.26092 48.9014C1.13672 48.1079 1.15052 47.2729 1.28852 46.4656C1.41962 45.6514 1.66803 44.851 1.98544 44.0851C2.62716 42.5463 3.55868 41.1525 4.62131 39.8897C4.89042 39.5723 5.15953 39.2687 5.44244 38.9651C5.72534 38.6684 6.01515 38.3717 6.31186 38.0888C6.90528 37.5161 7.53319 36.9848 8.18871 36.4673C8.35432 36.3361 8.51992 36.2119 8.69243 36.0877L8.76143 36.0394L8.85113 35.9773L8.96843 35.9014L9.19614 35.7427C9.50665 35.5288 9.81716 35.3011 10.1208 35.0734C10.7349 34.618 11.3283 34.135 11.901 33.6313C12.4806 33.1345 13.0326 32.61 13.5571 32.0649C14.0884 31.5267 14.5783 30.954 15.0406 30.3675C15.9514 29.1944 16.7104 27.911 17.1245 26.5448C17.2211 26.1998 17.3108 25.8548 17.366 25.5028C17.3936 25.3234 17.4143 25.1509 17.4281 24.9715C17.4419 24.7921 17.4488 24.5989 17.4626 24.4126C17.4902 23.6536 17.4626 22.8946 17.3867 22.1356C17.3039 21.3765 17.1452 20.6244 16.9244 19.8792C16.6966 19.1409 16.393 18.4095 16.0066 17.7056L15.9997 17.6987Z" fill="#00857C"/>
<path d="M2.99986 31.2027C2.42024 30.6506 1.90963 29.9951 1.50252 29.2844C1.09541 28.5668 0.771096 27.8009 0.52959 27.0004C0.294983 26.2 0.136279 25.3789 0.0534765 24.544C0.0396761 24.337 0.0120753 24.13 0.00517514 23.9161C-0.00172505 23.6953 -0.00172505 23.4744 0.00517514 23.2536C0.0189755 22.812 0.0672769 22.3773 0.150079 21.9495C0.232881 21.5217 0.343284 21.0939 0.481288 20.6868C0.619292 20.2728 0.784897 19.8725 0.964302 19.4861C1.32311 18.7064 1.76472 17.975 2.24774 17.2781C2.73075 16.5812 3.26897 15.9394 3.83478 15.3253C4.4006 14.7112 5.00091 14.1385 5.62193 13.5934C6.24295 13.0483 6.89157 12.5376 7.56088 12.0477C7.89899 11.8062 8.2371 11.5716 8.58901 11.3508L8.85812 11.1783L8.98922 11.0955L9.07893 11.0334L9.54124 10.716C10.7833 9.84657 11.977 8.85984 13.081 7.80412C14.1851 6.74149 15.1994 5.58915 16.0274 4.30572C16.8554 3.02228 17.4903 1.59394 17.7387 0C17.8629 0.793522 17.8491 1.62845 17.7111 2.43577C17.58 3.24999 17.3316 4.05041 17.0141 4.81633C16.3724 6.35508 15.4409 7.74891 14.3783 9.01165C14.1092 9.32906 13.8401 9.63267 13.5571 9.93627C13.2742 10.233 12.9844 10.5297 12.6877 10.8126C12.0943 11.3853 11.4664 11.9166 10.8109 12.4341C10.6453 12.5652 10.4797 12.6895 10.3072 12.8137L10.2382 12.862L10.1485 12.9241L10.0312 13L9.80345 13.1587C9.49294 13.3726 9.18243 13.6003 8.87882 13.828C8.2647 14.2834 7.67129 14.7664 7.09857 15.2701C6.51896 15.7669 5.96694 16.2913 5.44253 16.8365C4.91121 17.3747 4.4213 17.9474 3.95898 18.5339C3.04816 19.7069 2.28914 20.9904 1.87513 22.3566C1.77852 22.7016 1.68882 23.0466 1.63362 23.3985C1.60602 23.578 1.58532 23.7505 1.57152 23.9299C1.55772 24.1093 1.55082 24.3025 1.53702 24.4888C1.50942 25.2478 1.53702 26.0068 1.61292 26.7658C1.69572 27.5249 1.85443 28.277 2.07523 29.0222C2.30294 29.7605 2.60655 30.4919 2.99296 31.1958L2.99986 31.2027Z" fill="#00857C"/>
</svg>
